<svg width="24" height="24" viewBox="0 0 24 24" fill="none" xmlns="http://www.w3.org/2000/svg">
<path d="M6 19V21H3V12L5.45 5H18.55L21 12V21H18V19H6ZM5.8 10H18.2L17.15 7H6.85L5.8 10ZM5 12V17V12ZM7.5 16C7.91667 16 8.27067 15.854 8.562 15.562C8.854 15.2707 9 14.9167 9 14.5C9 14.0833 8.854 13.7293 8.562 13.438C8.27067 13.146 7.91667 13 7.5 13C7.08333 13 6.72933 13.146 6.438 13.438C6.146 13.7293 6 14.0833 6 14.5C6 14.9167 6.146 15.2707 6.438 15.562C6.72933 15.854 7.08333 16 7.5 16ZM16.5 16C16.9167 16 17.2707 15.854 17.562 15.562C17.854 15.2707 18 14.9167 18 14.5C18 14.0833 17.854 13.7293 17.562 13.438C17.2707 13.146 16.9167 13 16.5 13C16.0833 13 15.7293 13.146 15.438 13.438C15.146 13.7293 15 14.0833 15 14.5C15 14.9167 15.146 15.2707 15.438 15.562C15.7293 15.854 16.0833 16 16.5 16ZM5 17H19V12H5V17Z" fill="#F2963A"/>
</svg>
