<svg width="24" height="24" viewBox="0 0 24 24" fill="none" xmlns="http://www.w3.org/2000/svg">
<path d="M12.025 21C11.7416 21 11.504 20.904 11.312 20.712C11.1206 20.5207 11.025 20.2833 11.025 20V18.85C10.275 18.6833 9.61665 18.3917 9.04998 17.975C8.48332 17.5583 8.02498 16.975 7.67498 16.225C7.55832 15.9917 7.55398 15.746 7.66198 15.488C7.77065 15.2293 7.96665 15.0417 8.24998 14.925C8.48331 14.825 8.72498 14.8293 8.97498 14.938C9.22498 15.046 9.41665 15.225 9.54998 15.475C9.83332 15.975 10.1916 16.3543 10.625 16.613C11.0583 16.871 11.5916 17 12.225 17C12.9083 17 13.4876 16.846 13.963 16.538C14.4376 16.2293 14.675 15.75 14.675 15.1C14.675 14.5167 14.4916 14.054 14.125 13.712C13.7583 13.3707 12.9083 12.9833 11.575 12.55C10.1416 12.1 9.15831 11.5627 8.62498 10.938C8.09165 10.3127 7.82498 9.55 7.82498 8.65C7.82498 7.56667 8.17498 6.725 8.87498 6.125C9.57498 5.525 10.2916 5.18333 11.025 5.1V4C11.025 3.71667 11.1206 3.479 11.312 3.287C11.504 3.09567 11.7416 3 12.025 3C12.3083 3 12.546 3.09567 12.738 3.287C12.9293 3.479 13.025 3.71667 13.025 4V5.1C13.6583 5.2 14.2083 5.40433 14.675 5.713C15.1416 6.021 15.525 6.4 15.825 6.85C15.975 7.06667 16.0043 7.30833 15.913 7.575C15.821 7.84167 15.6333 8.03333 15.35 8.15C15.1166 8.25 14.875 8.254 14.625 8.162C14.375 8.07067 14.1416 7.90833 13.925 7.675C13.7083 7.44167 13.4543 7.26233 13.163 7.137C12.871 7.01233 12.5083 6.95 12.075 6.95C11.3416 6.95 10.7833 7.11267 10.4 7.438C10.0166 7.76267 9.82498 8.16667 9.82498 8.65C9.82498 9.2 10.075 9.63333 10.575 9.95C11.075 10.2667 11.9416 10.6 13.175 10.95C14.325 11.2833 15.196 11.8123 15.788 12.537C16.3793 13.2623 16.675 14.1 16.675 15.05C16.675 16.2333 16.325 17.1333 15.625 17.75C14.925 18.3667 14.0583 18.75 13.025 18.9V20C13.025 20.2833 12.9293 20.5207 12.738 20.712C12.546 20.904 12.3083 21 12.025 21Z" fill="#F2963A"/>
</svg>
