<svg width="24" height="24" viewBox="0 0 24 24" fill="none" xmlns="http://www.w3.org/2000/svg">
<path d="M7 9C6.45 9 5.97933 8.804 5.588 8.412C5.196 8.02067 5 7.55 5 7C5 6.45 5.196 5.97933 5.588 5.588C5.97933 5.196 6.45 5 7 5C7.55 5 8.02067 5.196 8.412 5.588C8.804 5.97933 9 6.45 9 7C9 7.55 8.804 8.02067 8.412 8.412C8.02067 8.804 7.55 9 7 9ZM4 22V21H2V13H5V12.25C5 11.6167 5.21667 11.0833 5.65 10.65C6.08333 10.2167 6.61667 10 7.25 10C7.58333 10 7.89167 10.0667 8.175 10.2C8.45833 10.3333 8.71667 10.5167 8.95 10.75L10.35 12.3C10.4833 12.4333 10.6127 12.5583 10.738 12.675C10.8627 12.7917 11 12.9 11.15 13H18V4.85C18 4.61667 17.9167 4.41667 17.75 4.25C17.5833 4.08333 17.3833 4 17.15 4C17.05 4 16.9543 4.02067 16.863 4.062C16.771 4.104 16.6833 4.16667 16.6 4.25L15.35 5.5C15.4333 5.78333 15.45 6.06267 15.4 6.338C15.35 6.61267 15.25 6.86667 15.1 7.1L12.35 4.3C12.5833 4.15 12.8333 4.054 13.1 4.012C13.3667 3.97067 13.6333 4 13.9 4.1L15.15 2.85C15.4167 2.58333 15.7207 2.375 16.062 2.225C16.404 2.075 16.7667 2 17.15 2C17.95 2 18.625 2.275 19.175 2.825C19.725 3.375 20 4.05 20 4.85V13H22V21H20V22H4ZM4 19H20V15H4V19ZM20 19H4H20Z" fill="#F2963A"/>
</svg>
