<svg width="16" height="16" viewBox="0 0 16 16" fill="none" xmlns="http://www.w3.org/2000/svg">
<path d="M11.203 5.5169C11.6006 5.5169 11.923 5.19455 11.923 4.7969C11.923 4.39926 11.6006 4.0769 11.203 4.0769C10.8054 4.0769 10.483 4.39926 10.483 4.7969C10.483 5.19455 10.8054 5.5169 11.203 5.5169Z" fill="#F2963A"/>
<path d="M8.00001 4.91895C7.39064 4.91895 6.79496 5.09964 6.2883 5.43819C5.78163 5.77673 5.38673 6.25792 5.15354 6.8209C4.92034 7.38388 4.85933 8.00336 4.97821 8.60102C5.09709 9.19867 5.39053 9.74765 5.82141 10.1785C6.2523 10.6094 6.80128 10.9029 7.39893 11.0217C7.99659 11.1406 8.61608 11.0796 9.17905 10.8464C9.74203 10.6132 10.2232 10.2183 10.5618 9.71166C10.9003 9.20499 11.081 8.60931 11.081 7.99995C11.081 7.18281 10.7564 6.39915 10.1786 5.82135C9.6008 5.24355 8.81714 4.91895 8.00001 4.91895ZM8.00001 9.99995C7.60444 9.99995 7.21777 9.88265 6.88887 9.66288C6.55997 9.44312 6.30362 9.13076 6.15225 8.76531C6.00087 8.39986 5.96127 7.99773 6.03844 7.60976C6.11561 7.2218 6.30609 6.86544 6.58579 6.58573C6.8655 6.30603 7.22187 6.11554 7.60983 6.03837C7.99779 5.9612 8.39992 6.00081 8.76537 6.15219C9.13083 6.30356 9.44318 6.55991 9.66295 6.8888C9.88271 7.2177 10 7.60438 10 7.99995C10 8.53038 9.78929 9.03909 9.41422 9.41416C9.03915 9.78923 8.53044 9.99995 8.00001 9.99995Z" fill="#F2963A"/>
<path d="M8 3.081C9.602 3.081 9.792 3.087 10.4245 3.116C10.8049 3.12052 11.1817 3.19037 11.5385 3.3225C11.7973 3.42235 12.0324 3.57527 12.2286 3.77144C12.4247 3.96761 12.5777 4.20267 12.6775 4.4615C12.8096 4.81826 12.8795 5.19508 12.884 5.5755C12.913 6.208 12.919 6.398 12.919 8.0005C12.919 9.603 12.913 9.792 12.884 10.4245C12.8795 10.8049 12.8096 11.1817 12.6775 11.5385C12.5777 11.7973 12.4247 12.0324 12.2286 12.2286C12.0324 12.4247 11.7973 12.5777 11.5385 12.6775C11.1817 12.8096 10.8049 12.8795 10.4245 12.884C9.792 12.913 9.602 12.919 8 12.919C6.398 12.919 6.208 12.913 5.5755 12.884C5.19508 12.8795 4.81826 12.8096 4.4615 12.6775C4.20267 12.5777 3.96761 12.4247 3.77144 12.2286C3.57527 12.0324 3.42235 11.7973 3.3225 11.5385C3.19037 11.1817 3.12052 10.8049 3.116 10.4245C3.087 9.792 3.081 9.602 3.081 8C3.081 6.398 3.087 6.208 3.116 5.5755C3.12052 5.19508 3.19037 4.81826 3.3225 4.4615C3.42235 4.20267 3.57527 3.96761 3.77144 3.77144C3.96761 3.57527 4.20267 3.42235 4.4615 3.3225C4.81826 3.19037 5.19508 3.12052 5.5755 3.116C6.208 3.087 6.398 3.081 8 3.081ZM8 2C6.3705 2 6.166 2.007 5.526 2.036C5.02839 2.04605 4.53608 2.14038 4.07 2.315C3.67136 2.46915 3.30933 2.70489 3.00711 3.00711C2.70489 3.30933 2.46915 3.67136 2.315 4.07C2.14033 4.53624 2.04599 5.02872 2.036 5.5265C2.007 6.1665 2 6.37 2 8C2 9.63 2.007 9.834 2.036 10.474C2.04605 10.9716 2.14038 11.4639 2.315 11.93C2.46915 12.3286 2.70489 12.6907 3.00711 12.9929C3.30933 13.2951 3.67136 13.5309 4.07 13.685C4.53624 13.8597 5.02872 13.954 5.5265 13.964C6.1665 13.993 6.3705 14 8 14C9.6295 14 9.834 13.993 10.474 13.964C10.9718 13.954 11.4643 13.8597 11.9305 13.685C12.3291 13.5309 12.6912 13.2951 12.9934 12.9929C13.2956 12.6907 13.5314 12.3286 13.6855 11.93C13.86 11.4637 13.9542 10.9713 13.964 10.4735C13.993 9.8335 14 9.63 14 8C14 6.37 13.993 6.166 13.964 5.526C13.954 5.02839 13.8596 4.53608 13.685 4.07C13.5309 3.67136 13.2951 3.30933 12.9929 3.00711C12.6907 2.70489 12.3286 2.46915 11.93 2.315C11.4637 2.1405 10.9713 2.04633 10.4735 2.0365C9.8335 2.0065 9.63 2 8 2Z" fill="#F2963A"/>
</svg>
