<svg width="16" height="16" viewBox="0 0 16 16" fill="none" xmlns="http://www.w3.org/2000/svg">
<path d="M14.625 3.37992C14.3463 3.10024 14.0151 2.87833 13.6504 2.72692C13.2858 2.5755 12.8948 2.49756 12.5 2.49756C12.1051 2.49756 11.7142 2.5755 11.3495 2.72692C10.9849 2.87833 10.6537 3.10024 10.375 3.37992L11.085 4.08992C11.2711 3.90378 11.4921 3.75611 11.7353 3.65537C11.9786 3.55463 12.2392 3.50278 12.5025 3.50278C12.7657 3.50278 13.0264 3.55463 13.2696 3.65537C13.5128 3.75611 13.7338 3.90378 13.92 4.08992C14.1061 4.27607 14.2538 4.49706 14.3545 4.74028C14.4553 4.98349 14.5071 5.24417 14.5071 5.50742C14.5071 5.77068 14.4553 6.03135 14.3545 6.27457C14.2538 6.51779 14.1061 6.73878 13.92 6.92492L9.91998 10.9249C9.5447 11.3009 9.03545 11.5123 8.50425 11.5128C7.97305 11.5133 7.46343 11.3027 7.08748 10.9274C6.71154 10.5521 6.50007 10.0429 6.4996 9.51169C6.49913 8.9805 6.7097 8.47087 7.08498 8.09492L7.78998 7.38492L7.08498 6.67492L6.37498 7.38492C6.0953 7.66364 5.87339 7.99481 5.72197 8.35947C5.57056 8.72412 5.49261 9.11508 5.49261 9.50993C5.49261 9.90477 5.57056 10.2957 5.72197 10.6604C5.87339 11.025 6.0953 11.3562 6.37498 11.6349C6.94073 12.1934 7.70502 12.5045 8.49998 12.4999C8.89634 12.5016 9.28909 12.4246 9.65555 12.2736C10.022 12.1225 10.3549 11.9004 10.635 11.6199L14.635 7.61992C15.1955 7.0561 15.5092 6.29286 15.5073 5.49786C15.5055 4.70285 15.1881 3.9411 14.625 3.37992Z" fill="#F2963A"/>
<path d="M2.09498 12.4099C1.90828 12.2241 1.76013 12.0032 1.65904 11.7599C1.55794 11.5167 1.5059 11.2558 1.5059 10.9924C1.5059 10.729 1.55794 10.4682 1.65904 10.2249C1.76013 9.98164 1.90828 9.76075 2.09498 9.57491L6.09498 5.57491C6.28082 5.38821 6.50171 5.24006 6.74497 5.13896C6.98823 5.03787 7.24906 4.98583 7.51248 4.98583C7.77591 4.98583 8.03674 5.03787 8.28 5.13896C8.52326 5.24006 8.74415 5.38821 8.92999 5.57491C9.11551 5.76221 9.26155 5.98485 9.35946 6.22962C9.45737 6.4744 9.50516 6.73633 9.49998 6.99991C9.50151 7.26431 9.45059 7.52639 9.35018 7.77099C9.24977 8.01559 9.10185 8.23785 8.91498 8.42491L7.85498 9.49991L8.56498 10.2099L9.62498 9.14991C10.1892 8.58566 10.5062 7.82038 10.5062 7.02241C10.5062 6.22444 10.1892 5.45916 9.62498 4.89491C9.06074 4.33066 8.29545 4.01367 7.49748 4.01367C6.69952 4.01367 5.93423 4.33066 5.36998 4.89491L1.36998 8.89491C1.08955 9.17371 0.867007 9.5052 0.715146 9.87032C0.563286 10.2354 0.485107 10.627 0.485107 11.0224C0.485107 11.4179 0.563286 11.8094 0.715146 12.1745C0.867007 12.5396 1.08955 12.8711 1.36998 13.1499C1.9394 13.7042 2.70543 14.0098 3.49998 13.9999C4.30154 14.0007 5.07084 13.6843 5.63998 13.1199L4.92998 12.4099C4.74415 12.5966 4.52326 12.7448 4.28 12.8459C4.03674 12.947 3.77591 12.999 3.51248 12.999C3.24906 12.999 2.98823 12.947 2.74497 12.8459C2.50171 12.7448 2.28082 12.5966 2.09498 12.4099Z" fill="#F2963A"/>
</svg>
