<svg width="16" height="16" viewBox="0 0 16 16" fill="none" xmlns="http://www.w3.org/2000/svg">
<path d="M12.7 3.27329C12.0888 2.65591 11.3608 2.1664 10.5584 1.83333C9.75603 1.50025 8.89538 1.33027 8.02664 1.33329C4.38664 1.33329 1.41997 4.29996 1.41997 7.93996C1.41997 9.10662 1.72664 10.24 2.29997 11.24L1.36664 14.6666L4.86664 13.7466C5.8333 14.2733 6.91997 14.5533 8.02664 14.5533C11.6666 14.5533 14.6333 11.5866 14.6333 7.94662C14.6333 6.17996 13.9466 4.51996 12.7 3.27329ZM8.02664 13.4333C7.03997 13.4333 6.0733 13.1666 5.22664 12.6666L5.02664 12.5466L2.94664 13.0933L3.49997 11.0666L3.36664 10.86C2.81847 9.9846 2.5274 8.97279 2.52664 7.93996C2.52664 4.91329 4.9933 2.44662 8.01997 2.44662C9.48664 2.44662 10.8666 3.01996 11.9 4.05996C12.4116 4.56927 12.8171 5.17507 13.0929 5.84224C13.3687 6.50942 13.5093 7.2247 13.5066 7.94662C13.52 10.9733 11.0533 13.4333 8.02664 13.4333ZM11.04 9.32662C10.8733 9.24662 10.06 8.84662 9.9133 8.78662C9.75997 8.73329 9.6533 8.70662 9.53997 8.86662C9.42664 9.03329 9.1133 9.40662 9.01997 9.51329C8.92664 9.62662 8.82664 9.63996 8.65997 9.55329C8.4933 9.47329 7.95997 9.29329 7.3333 8.73329C6.83997 8.29329 6.5133 7.75329 6.4133 7.58662C6.31997 7.41996 6.39997 7.33329 6.48664 7.24662C6.55997 7.17329 6.6533 7.05329 6.7333 6.95996C6.8133 6.86662 6.84664 6.79329 6.89997 6.68662C6.9533 6.57329 6.92664 6.47996 6.88664 6.39996C6.84664 6.31996 6.5133 5.50662 6.37997 5.17329C6.24664 4.85329 6.10664 4.89329 6.00664 4.88662H5.68664C5.5733 4.88662 5.39997 4.92662 5.24664 5.09329C5.09997 5.25996 4.6733 5.65996 4.6733 6.47329C4.6733 7.28662 5.26664 8.07329 5.34664 8.17996C5.42664 8.29329 6.5133 9.95996 8.16664 10.6733C8.55997 10.8466 8.86664 10.9466 9.10664 11.02C9.49997 11.1466 9.85997 11.1266 10.1466 11.0866C10.4666 11.04 11.1266 10.6866 11.26 10.3C11.4 9.91329 11.4 9.58662 11.3533 9.51329C11.3066 9.43996 11.2066 9.40662 11.04 9.32662Z" fill="#F2963A"/>
</svg>
